<svg width="15" height="15" viewBox="0 0 15 15" fill="none" xmlns="http://www.w3.org/2000/svg">
<g clip-path="url(#clip0_1_10)">
<circle cx="7.5" cy="7.5" r="7.5" fill="#4E4E4E"/>
<path fill-rule="evenodd" clip-rule="evenodd" d="M6.67344 7.33374C6.67344 7.78159 7.03649 8.14465 7.48435 8.14465C7.9322 8.14465 8.29526 7.78159 8.29526 7.33374C8.29526 6.88588 7.9322 6.52283 7.48435 6.52283C7.03649 6.52283 6.67344 6.88588 6.67344 7.33374Z" fill="#FAFF00"/>
<path fill-rule="evenodd" clip-rule="evenodd" d="M6.60068 6.35841C7.14409 5.93105 7.81019 5.92652 8.37094 6.35737L10.2213 2.56033C8.66662 1.81075 6.30199 1.81855 4.76142 2.55176L6.60068 6.35841Z" fill="#FAFF00"/>
<path fill-rule="evenodd" clip-rule="evenodd" d="M6.97275 8.5677C6.35577 8.25582 6.07016 7.65404 6.22366 6.96374L2.00038 6.89146C1.97806 8.61725 2.98447 10.757 4.30005 11.8434L6.97275 8.5677Z" fill="#FAFF00"/>
<path fill-rule="evenodd" clip-rule="evenodd" d="M8.77262 6.95948C8.93029 7.63258 8.65289 8.23819 8.02542 8.56432L10.6847 11.846C12.0211 10.7538 13.0134 8.6074 12.9999 6.90131L8.77262 6.95948Z" fill="#FAFF00"/>
</g>
<defs>
<clipPath id="clip0_1_10">
<rect width="15" height="15" fill="white"/>
</clipPath>
</defs>
</svg>
